<svg width="101" height="101" viewBox="0 0 101 101" fill="none" xmlns="http://www.w3.org/2000/svg">
<circle cx="50.5" cy="50.5" r="50.5" fill="#D4A64F" fill-opacity="0.3"/>
<path d="M44.6849 32.4425C44.6849 29.0758 47.4395 26.3213 50.8061 26.3213C54.1728 26.3213 56.9273 29.0758 56.9273 32.4425C56.9273 35.8092 54.1728 38.5637 50.8061 38.5637C47.4395 38.5637 44.6849 35.8092 44.6849 32.4425ZM87.5334 50.8061C87.5334 71.0673 71.0673 87.5334 50.8061 87.5334C30.5449 87.5334 14.0789 71.0673 14.0789 50.8061C14.0789 30.5449 30.5449 14.0789 50.8061 14.0789C71.0673 14.0789 87.5334 30.5449 87.5334 50.8061ZM81.4122 50.8061C81.4122 33.9422 67.6701 20.2001 50.8061 20.2001C33.9422 20.2001 20.2001 33.9422 20.2001 50.8061C20.2001 67.6701 33.9422 81.4122 50.8061 81.4122C67.6701 81.4122 81.4122 67.6701 81.4122 50.8061ZM64.7319 35.8398L53.1322 41.6243H48.4495L36.8498 35.8398C35.3195 35.0746 33.5137 35.6867 32.7486 37.217C31.9834 38.7167 32.5955 40.5531 34.1258 41.3182L44.6849 46.5825V57.3864L38.9616 67.6701C38.1352 69.1392 38.6555 71.0061 40.1552 71.8325C40.6143 72.1079 41.1346 72.2304 41.6549 72.2304C42.7261 72.2304 43.7667 71.6489 44.3176 70.6695L50.2552 59.9879H51.3876L57.3252 70.6695C57.8761 71.6795 58.9167 72.2304 59.9879 72.2304C60.5083 72.2304 60.9979 72.1079 61.4876 71.8325C62.9567 71.0061 63.5076 69.1392 62.6813 67.6701L56.9579 57.3864V46.5825L67.517 41.3182C69.0167 40.5531 69.6289 38.7167 68.8943 37.217C68.1292 35.7173 66.2928 35.1052 64.7931 35.8398H64.7319Z" fill="#D4A64F"/>
</svg>
