<svg width="21" height="21" viewBox="0 0 21 21" fill="none" xmlns="http://www.w3.org/2000/svg">
<circle cx="10.5" cy="10.5" r="10.5" fill="#D4A64F"/>
<mask id="path-2-inside-1_354_29" fill="white">
<path d="M17 6.60226L8.33333 15L4 10.8011L4.62155 10.1989L8.33333 13.804L16.3785 6L17 6.60226Z"/>
</mask>
<path d="M17 6.60226L8.33333 15L4 10.8011L4.62155 10.1989L8.33333 13.804L16.3785 6L17 6.60226Z" fill="white"/>
<path d="M17 6.60226L22.567 12.3476L28.4963 6.60227L22.567 0.856982L17 6.60226ZM8.33333 15L2.76632 20.7453L8.33333 26.1396L13.9003 20.7453L8.33333 15ZM4 10.8011L-1.56701 5.05584L-7.49629 10.8011L-1.56701 16.5464L4 10.8011ZM4.62155 10.1989L10.1953 4.46014L4.62811 -0.947047L-0.945464 4.45358L4.62155 10.1989ZM8.33333 13.804L2.75956 19.5427L8.3298 24.9528L13.9035 19.5462L8.33333 13.804ZM16.3785 6L21.9455 0.25472L16.3754 -5.1425L10.8083 0.257736L16.3785 6ZM17 6.60226L11.433 0.856972L2.76632 9.25471L8.33333 15L13.9003 20.7453L22.567 12.3476L17 6.60226ZM8.33333 15L13.9003 9.25471L9.56701 5.05584L4 10.8011L-1.56701 16.5464L2.76632 20.7453L8.33333 15ZM4 10.8011L9.56701 16.5464L10.1886 15.9442L4.62155 10.1989L-0.945464 4.45358L-1.56701 5.05584L4 10.8011ZM4.62155 10.1989L-0.952225 15.9376L2.75956 19.5427L8.33333 13.804L13.9071 8.06523L10.1953 4.46014L4.62155 10.1989ZM8.33333 13.804L13.9035 19.5462L21.9486 11.7423L16.3785 6L10.8083 0.257736L2.7632 8.0617L8.33333 13.804ZM16.3785 6L10.8114 11.7453L11.433 12.3475L17 6.60226L22.567 0.856982L21.9455 0.25472L16.3785 6Z" fill="white" mask="url(#path-2-inside-1_354_29)"/>
</svg>
