<svg width="46" height="46" viewBox="0 0 46 46" fill="none" xmlns="http://www.w3.org/2000/svg">
<circle cx="23" cy="23" r="23" fill="#1B4332" fill-opacity="0.3"/>
<path d="M30.0821 10.854C28.5792 10.8775 27.1091 11.2983 25.8202 12.074C24.5313 12.8498 23.4693 13.9529 22.7415 15.2721C22.0136 13.9529 20.9516 12.8498 19.6627 12.074C18.3738 11.2983 16.9037 10.8775 15.4008 10.854C13.005 10.9584 10.7478 12.0097 9.12223 13.7783C7.49671 15.5469 6.63503 17.8889 6.72546 20.2927C6.72546 29.3632 21.3481 39.8395 21.97 40.284L22.7415 40.8315L23.5129 40.284C24.1349 39.8421 38.7575 29.3632 38.7575 20.2927C38.8479 17.8889 37.9862 15.5469 36.3607 13.7783C34.7352 12.0097 32.4779 10.9584 30.0821 10.854Z" fill="#1B4332"/>
</svg>
