<svg width="46" height="46" viewBox="0 0 46 46" fill="none" xmlns="http://www.w3.org/2000/svg">
<circle cx="23" cy="23" r="23" fill="#1B4332" fill-opacity="0.3"/>
<path d="M10.8271 27.1091H7.27713V25.8187C7.2576 24.0094 7.73677 22.2297 8.66208 20.6747C9.5874 19.1198 10.9231 17.8497 12.5227 17.0039C14.0984 16.227 15.805 15.75 17.5553 15.5974C16.7905 16.5437 16.0236 17.5493 15.2545 18.6143C13.5222 21.3047 12.0402 24.1482 10.8271 27.1091ZM27.3857 30.7391C24.6955 32.4735 21.852 33.9577 18.8909 35.1729V38.7229H20.1813C21.9906 38.7424 23.7704 38.2632 25.3253 37.3379C26.8802 36.4126 28.1503 35.0769 28.9961 33.4773C29.773 31.9016 30.25 30.195 30.4026 28.4447C29.4606 29.2061 28.455 29.9709 27.3857 30.7391ZM38.2471 11.6126C38.0755 17.2297 34.0313 22.8005 25.8823 28.646C23.6648 30.0836 21.3253 31.3237 18.8909 32.3521V31.6256C18.8851 30.4295 18.4074 29.2841 17.5617 28.4384C16.7159 27.5926 15.5705 27.1149 14.3744 27.1091H13.6479C14.6775 24.6747 15.9194 22.3356 17.3591 20.119C23.1905 11.9829 28.7522 7.93875 34.3603 7.75293C37.1554 7.75293 38.2471 8.89495 38.2471 11.6126ZM30.5046 18.7215C30.5046 17.8659 30.1647 17.0453 29.5597 16.4403C28.9547 15.8353 28.1342 15.4954 27.2786 15.4954C26.423 15.4954 25.6024 15.8353 24.9974 16.4403C24.3924 17.0453 24.0525 17.8659 24.0525 18.7215C24.0525 19.577 24.3924 20.3976 24.9974 21.0026C25.6024 21.6076 26.423 21.9475 27.2786 21.9475C28.1342 21.9475 28.9547 21.6076 29.5597 21.0026C30.1647 20.3976 30.5046 19.577 30.5046 18.7215ZM9.05016 38.4454C10.5032 38.1874 14.0066 37.4673 15.177 36.2982C15.5366 35.9387 15.8217 35.5119 16.0163 35.0422C16.2109 34.5724 16.311 34.069 16.311 33.5606C16.311 33.0521 16.2109 32.5487 16.0163 32.079C15.8217 31.6093 15.5366 31.1825 15.177 30.823C14.8175 30.4634 14.3907 30.1783 13.921 29.9837C13.4513 29.7891 12.9479 29.689 12.4394 29.689C11.4126 29.689 10.4279 30.0969 9.70182 30.823C8.53271 31.9934 7.81136 35.4968 7.55457 36.9498L7.23584 38.7642L9.05016 38.4454Z" fill="#1B4332"/>
</svg>
